<?xml version="1.0" encoding="utf-8"?>
<!-- Generator: Adobe Illustrator 22.1.0, SVG Export Plug-In . SVG Version: 6.00 Build 0)  -->
<svg version="1.1" id="Layer_1" xmlns="http://www.w3.org/2000/svg" xmlns:xlink="http://www.w3.org/1999/xlink" x="0px" y="0px"
	 viewBox="0 0 661 204" style="enable-background:new 0 0 661 204;" xml:space="preserve">
<style type="text/css">
	.st0{fill:#46B751;}
	.st1{fill:#465C5C;}
	.st2{fill:url(#SVGID_1_);}
</style>
<g>
	<g>
		<g>
			<path class="st0" d="M240.9,107.8l6.7-7.5c4.6,4.2,10.8,7,16.8,7c7.3,0,11.2-3.1,11.2-7.9c0-5.1-4.2-6.7-10-9l-8.8-3.6
				c-6.3-2.5-13-7.3-13-16.3c0-9.8,9.1-17.3,21.6-17.3c7.5,0,14.8,3,19.9,7.8l-5.9,6.9c-4.1-3.3-8.5-5.3-14-5.3
				c-6.1,0-10.1,2.7-10.1,7.2c0,4.8,4.9,6.6,10.3,8.7l8.7,3.5c7.7,3,13,7.7,13,16.6c0,10-8.7,18.3-23.1,18.3
				C255.4,116.8,247,113.5,240.9,107.8z"/>
			<path class="st0" d="M299.8,100.1v-22h-6.9V70l7.5-0.5l1.3-12.6h9.4v12.6h12.3v8.6h-12.3v22c0,5.4,2.2,8.1,6.9,8.1
				c1.7,0,3.6-0.5,5-1.1l1.9,8c-2.6,0.8-6,1.7-9.9,1.7C303.9,116.8,299.8,110.1,299.8,100.1z"/>
			<path class="st0" d="M331,103.3c0-9.9,8.6-15,28.5-17.1c-0.2-5-2.2-9.1-8.8-9.1c-4.8,0-9.3,2.1-13.6,4.5l-4.2-7.2
				c5.3-3.2,12.2-6,19.9-6c12.1,0,18.1,7.1,18.1,20v27.3h-9.3l-0.9-5.1h-0.3c-4.3,3.5-9.3,6.2-15,6.2
				C336.8,116.8,331,111.3,331,103.3z M359.5,103.3V92.9c-13.1,1.6-17.5,4.8-17.5,9.5c0,4.1,2.9,5.9,7,5.9
				C352.9,108.3,355.9,106.5,359.5,103.3z"/>
			<path class="st0" d="M379.9,70l7.1-0.5h49.9v8.6h-57V70z M386.4,65.5c0-9.5,5.1-16.4,16.8-16.4c3.7,0,7.1,0.7,9.5,1.7l-2.2,8.1
				c-1.8-0.8-3.5-1.2-6.1-1.2c-4,0-6.6,2.6-6.6,7.8v50.1h-11.4V65.5z M416,64.7c0-9.6,4.6-16.6,16-16.6c3.5,0,6.7,0.8,8.9,1.6
				l-2.2,8.1c-1.7-0.7-3.6-1.1-5.2-1.1c-4,0-6.2,2.4-6.2,7.8v51.1H416V64.7z"/>
			<path class="st1" d="M458.9,54.2h13.4l21,61.4h-12.1L471.4,83c-2.1-6.5-3.9-13.5-5.8-20.3h-0.4c-1.8,6.8-3.7,13.8-5.7,20.3
				l-9.9,32.7h-11.7L458.9,54.2z M450.3,90.5h30.4V99h-30.4V90.5z"/>
			<path class="st1" d="M495.6,110.4l5.3-6.9c4.3,3.2,8.5,5.1,13.4,5.1c5.3,0,7.8-2.4,7.8-5.5c0-3.9-5.2-5.6-10.4-7.5
				c-6.3-2.3-13.6-5.8-13.6-13.5c0-8,6.8-13.8,17.6-13.8c6.7,0,12.1,2.6,16.1,5.5l-5.2,6.7c-3.4-2.4-6.8-4-10.6-4
				c-4.9,0-7.2,2.2-7.2,5.1c0,3.6,4.9,5,10.1,6.9c6.5,2.3,13.9,5.3,13.9,13.9c0,7.9-6.6,14.3-18.8,14.3
				C507.3,116.8,500.3,114.1,495.6,110.4z"/>
			<path class="st1" d="M541.6,55.3c0-3.6,3-6.1,7-6.1s7,2.5,7,6.1c0,3.6-3,6.1-7,6.1S541.6,58.9,541.6,55.3z M542.9,69.5h11.4v46.1
				h-11.4V69.5z"/>
			<path class="st1" d="M566,103.3c0-9.9,8.6-15,28.5-17.1c-0.2-5-2.2-9.1-8.8-9.1c-4.8,0-9.3,2.1-13.6,4.5l-4.2-7.2
				c5.3-3.2,12.2-6,19.9-6c12.1,0,18.1,7.1,18.1,20v27.3h-9.3l-0.9-5.1h-0.3c-4.3,3.5-9.3,6.2-15,6.2
				C571.9,116.8,566,111.3,566,103.3z M594.5,103.3V92.9c-13.1,1.6-17.5,4.8-17.5,9.5c0,4.1,2.9,5.9,7,5.9
				C587.9,108.3,590.9,106.5,594.5,103.3z"/>
		</g>
	</g>
	<g>
		<g>
			<path class="st1" d="M251.4,149.6v-6.7h-2.1v-2.5l2.3-0.1l0.4-3.8h2.9v3.8h3.8v2.6h-3.8v6.7c0,1.7,0.7,2.5,2.1,2.5
				c0.5,0,1.1-0.2,1.6-0.3l0.6,2.4c-0.8,0.3-1.9,0.5-3.1,0.5C252.7,154.7,251.4,152.7,251.4,149.6z"/>
			<path class="st1" d="M271.5,147.4c0-4.7,3.4-7.4,7.1-7.4c3.7,0,7.1,2.7,7.1,7.4c0,4.7-3.4,7.4-7.1,7.4
				C274.9,154.7,271.5,152,271.5,147.4z M282.1,147.4c0-2.8-1.3-4.7-3.5-4.7c-2.2,0-3.5,1.9-3.5,4.7s1.3,4.7,3.5,4.7
				C280.8,152,282.1,150.2,282.1,147.4z"/>
			<path class="st1" d="M298.8,156.9c0-1.2,0.8-2.2,2.2-3v-0.1c-0.8-0.5-1.4-1.2-1.4-2.3c0-1.1,0.8-2.1,1.7-2.6v-0.1
				c-1-0.7-2-2-2-3.7c0-3.2,2.8-5.1,5.9-5.1c0.8,0,1.6,0.1,2.2,0.3h5.3v2.5h-2.7c0.5,0.5,0.9,1.4,0.9,2.4c0,3.1-2.5,4.8-5.7,4.8
				c-0.6,0-1.4-0.1-2-0.4c-0.5,0.4-0.7,0.7-0.7,1.3c0,0.8,0.6,1.3,2.4,1.3h2.7c3.6,0,5.5,1,5.5,3.5c0,2.8-3.1,5-8,5
				C301.5,160.6,298.8,159.4,298.8,156.9z M309.7,156.2c0-1.1-0.9-1.4-2.6-1.4H305c-0.8,0-1.4-0.1-2-0.2c-0.8,0.6-1.2,1.2-1.2,1.9
				c0,1.3,1.5,2,3.8,2C308,158.5,309.7,157.4,309.7,156.2z M307.8,145c0-1.8-1.1-2.8-2.6-2.8c-1.5,0-2.6,1-2.6,2.8
				c0,1.8,1.2,2.8,2.6,2.8C306.7,147.8,307.8,146.8,307.8,145z"/>
			<path class="st1" d="M325.4,147.4c0-4.6,3.4-7.4,6.9-7.4c4,0,6.2,2.8,6.2,6.7c0,0.6-0.1,1.3-0.2,1.6h-9.5c0.3,2.5,2,3.9,4.4,3.9
				c1.3,0,2.4-0.4,3.5-1l1.2,2.1c-1.4,0.9-3.2,1.5-5.1,1.5C328.6,154.7,325.4,152,325.4,147.4z M335.4,146c0-2.2-1-3.5-3.1-3.5
				c-1.7,0-3.3,1.2-3.6,3.5H335.4z"/>
			<path class="st1" d="M353,149.6v-6.7h-2.1v-2.5l2.3-0.1l0.4-3.8h2.9v3.8h3.8v2.6h-3.8v6.7c0,1.7,0.7,2.5,2.1,2.5
				c0.5,0,1.1-0.2,1.6-0.3l0.6,2.4c-0.8,0.3-1.9,0.5-3.1,0.5C354.2,154.7,353,152.7,353,149.6z"/>
			<path class="st1" d="M374.1,134.1h3.5v5.2l-0.1,2.7c1.3-1.1,2.7-2.1,4.8-2.1c3.2,0,4.6,2,4.6,5.6v8.8h-3.5V146
				c0-2.3-0.7-3.2-2.3-3.2c-1.3,0-2.2,0.6-3.4,1.8v9.8h-3.5V134.1z"/>
			<path class="st1" d="M400.7,147.4c0-4.6,3.4-7.4,6.9-7.4c4,0,6.2,2.8,6.2,6.7c0,0.6-0.1,1.3-0.2,1.6h-9.5c0.3,2.5,2,3.9,4.4,3.9
				c1.3,0,2.4-0.4,3.5-1l1.2,2.1c-1.4,0.9-3.2,1.5-5.1,1.5C404,154.7,400.7,152,400.7,147.4z M410.8,146c0-2.2-1-3.5-3.1-3.5
				c-1.7,0-3.3,1.2-3.6,3.5H410.8z"/>
			<path class="st1" d="M427.8,140.3h2.9l0.3,2.5h0.1c1.1-1.8,2.6-2.9,4.3-2.9c0.8,0,1.2,0.1,1.7,0.3l-0.6,2.9
				c-0.5-0.1-0.9-0.2-1.5-0.2c-1.2,0-2.6,0.8-3.5,2.9v8.6h-3.5V140.3z"/>
			<path class="st1" d="M465.1,140.3h3.5l1.8,7.3c0.3,1.4,0.5,2.7,0.8,4.1h0.1c0.3-1.4,0.6-2.7,1-4.1l2-7.3h3.2l2,7.3
				c0.4,1.4,0.7,2.7,1,4.1h0.1c0.3-1.4,0.5-2.7,0.8-4.1l1.8-7.3h3.3l-3.8,14.1h-4.2l-1.8-6.6c-0.3-1.3-0.6-2.6-0.9-4.1h-0.1
				c-0.3,1.5-0.5,2.8-0.9,4.1l-1.7,6.5h-4L465.1,140.3z"/>
			<path class="st1" d="M499,147.4c0-4.6,3.4-7.4,6.9-7.4c4,0,6.2,2.8,6.2,6.7c0,0.6-0.1,1.3-0.2,1.6h-9.5c0.3,2.5,2,3.9,4.4,3.9
				c1.3,0,2.4-0.4,3.5-1l1.2,2.1c-1.4,0.9-3.2,1.5-5.1,1.5C502.3,154.7,499,152,499,147.4z M509,146c0-2.2-1-3.5-3.1-3.5
				c-1.7,0-3.3,1.2-3.6,3.5H509z"/>
			<path class="st1" d="M541.8,147.4c0-4.7,3.5-7.4,7.5-7.4c1.9,0,3.3,0.7,4.4,1.6l-1.7,2.1c-0.8-0.7-1.5-1-2.5-1
				c-2.4,0-4.1,1.9-4.1,4.7s1.6,4.7,4,4.7c1.2,0,2.2-0.5,3.1-1.2l1.4,2.2c-1.4,1.2-3.2,1.7-4.9,1.7C545,154.7,541.8,152,541.8,147.4
				z"/>
			<path class="st1" d="M566.7,150.6c0-3,2.7-4.6,8.8-5.2c0-1.5-0.7-2.8-2.7-2.8c-1.5,0-2.9,0.6-4.2,1.4l-1.3-2.2
				c1.6-1,3.8-1.8,6.1-1.8c3.7,0,5.6,2.2,5.6,6.1v8.3h-2.9l-0.3-1.6h-0.1c-1.3,1.1-2.9,1.9-4.6,1.9
				C568.5,154.7,566.7,153.1,566.7,150.6z M575.5,150.6v-3.2c-4.1,0.5-5.4,1.5-5.4,2.9c0,1.2,0.9,1.8,2.2,1.8
				C573.5,152.1,574.4,151.6,575.5,150.6z"/>
			<path class="st1" d="M593.9,140.3h2.9l0.3,1.9h0.1c1.3-1.2,2.9-2.2,4.9-2.2c3.2,0,4.6,2,4.6,5.6v8.8h-3.5V146
				c0-2.3-0.7-3.2-2.3-3.2c-1.3,0-2.2,0.6-3.4,1.8v9.8h-3.5V140.3z"/>
		</g>
	</g>
	<g>
		<linearGradient id="SVGID_1_" gradientUnits="userSpaceOnUse" x1="186.4326" y1="33.548" x2="-2.9746" y2="215.4909">
			<stop  offset="0.3728" style="stop-color:#46B751"/>
			<stop  offset="0.9983" style="stop-color:#465C5C"/>
		</linearGradient>
		<path class="st2" d="M43,99.9h47.8l25.7,28c1.1,1.3,3.1,1.5,4.4,0.3l83.6-73.5h11.3l-93.1,111.4c-2.3,2.7-6.3,2.9-8.9,0.5L43,99.9
			z"/>
		<path class="st1" d="M145.6,81.6v18l-4.8,4.2l-19.9,17.5c-1.3,1.2-3.3,1-4.4-0.3l-16.9-18.4L93.5,96V81.6c0-5.6,3.5-10.3,8.4-12.1
			c1.4-0.5,2.9-0.8,4.5-0.8h5.8V64c-4.4-2.6-7.4-7.3-7.4-12.8c0-8.2,6.6-14.8,14.8-14.8c8.2,0,14.8,6.6,14.8,14.8
			c0,5.5-3,10.2-7.4,12.8v4.6h5.8c1.6,0,3.1,0.3,4.5,0.8C142.1,71.3,145.6,76,145.6,81.6z"/>
		<path class="st1" d="M101.5,66.9c-1,0.2-1.9,0.4-2.8,0.7c-5.8,2.2-10,7.8-10,14.3v11H62.5V69.7c0-5.4,4.4-9.8,9.8-9.8h4.4v-3.5
			c-3.3-1.9-5.6-5.5-5.6-9.7c0-6.2,5-11.2,11.2-11.2c6.2,0,11.2,5,11.2,11.2c0,4.1-2.3,7.7-5.6,9.7V60h4.4
			C96.6,60,100.3,62.9,101.5,66.9z"/>
		<path class="st1" d="M176.6,69.7v2.6l-26.3,23.1V82c0-6.6-4.2-12.2-10-14.3c-0.9-0.3-1.8-0.6-2.8-0.7c1.2-4,4.9-6.9,9.4-6.9h4.4
			v-3.5c-3.3-1.9-5.6-5.5-5.6-9.7c0-6.2,5-11.2,11.2-11.2c6.2,0,11.2,5,11.2,11.2c0,4.1-2.3,7.7-5.6,9.7V60h4.4
			C172.3,60,176.6,64.3,176.6,69.7z"/>
	</g>
</g>
</svg>
